#!OML:ASF F:\VICON\USERDATA\INSTALL\Justin_Nancy\Justin_Nancy.ASF
:FULLY-SPECIFIED
:DEGREES
165
root 0.543298 16.8518 13.2521 -0.102421 -5.32677 -0.742207
lowerback 4.97947 1.81595 0.280982
upperback -0.259677 2.48406 1.50784
thorax -3.11333 1.24397 1.20539
lowerneck -15.8031 -3.2168 -9.98643
upperneck 21.8955 -3.26009 5.71598
head 9.82194 -1.70148 3.2466
rclavicle 1.19271e-014 3.97569e-016
rhumerus -26.1423 -11.2367 -77.5725
rradius 40.3915
rwrist -2.08599
rhand -16.9685 11.8814
rfingers 7.12502
rthumb 9.26574 -17.895
lclavicle 1.19271e-014 3.97569e-016
lhumerus -45.1664 11.2188 79.4544
lradius 19.8673
lwrist -17.9039
lhand -6.28665 28.8127
lfingers 7.12502
lthumb 19.5568 57.849
rfemur 12.8055 4.9345 24.6538
rtibia 40.1885
rfoot 13.33 8.27891
rtoes 2.00391
lfemur -32.275 -0.51419 -20.7524
ltibia 33.2902
lfoot -1.23365 -4.46998
ltoes -1.36407
166
root 0.551832 16.8811 13.5305 -0.431547 -5.50629 -0.641075
lowerback 5.13244 1.90139 0.348113
upperback -0.08949 2.59973 1.47489
thorax -3.02147 1.29971 1.12304
lowerneck -16.1452 -3.29424 -10.0337
upperneck 21.9479 -3.31184 5.67957
head 9.91052 -1.72937 3.23374
rclavicle 1.55549e-014 -3.57812e-015
rhumerus -26.3435 -11.8118 -77.4404
rradius 40.207
rwrist -2.49272
rhand -17.2369 11.973
rfingers 7.12502
rthumb 9.00675 -17.8148
lclavicle 1.55549e-014 -3.57812e-015
lhumerus -44.8988 11.9139 78.9463
lradius 19.5676
lwrist -18.1803
lhand -5.99505 29.9169
lfingers 7.12502
lthumb 19.8371 58.9245
rfemur 11.2833 5.14447 24.3006
rtibia 43.4065
rfoot 17.9494 8.07745
rtoes 7.77786
lfemur -31.4973 -0.0397042 -21.1934
ltibia 34.2813
lfoot -1.84009 -4.91509
ltoes 1.16418
167
root 0.564309 16.9129 13.8027 -0.728533 -5.71989 -0.54098
lowerback 5.42391 1.96123 0.457912
upperback -0.0547618 2.68775 1.42859
thorax -3.14355 1.34098 0.99738
lowerneck -16.0503 -3.21944 -9.86538
upperneck 21.7208 -3.20319 5.46728
head 9.79593 -1.68688 3.14125
rclavicle 3.46879e-014 -7.95139e-016
rhumerus -26.7937 -12.0187 -77.405
rradius 40.0702
rwrist -2.87749
rhand -17.6204 12.2429
rfingers 7.12502
rthumb 8.63663 -17.5604
lclavicle 3.46879e-014 -7.95139e-016
lhumerus -44.8241 12.8535 78.1941
lradius 19.2306
lwrist -18.7526
lhand -6.07734 29.7862
lfingers 7.12502
lthumb 19.758 58.802
rfemur 9.62115 5.3006 23.9128
rtibia 46.64
rfoot 22.0417 8.08697
rtoes 9.4588
lfemur -30.6216 0.308984 -21.6285
ltibia 35.0636
lfoot -2.52701 -4.90212
ltoes 3.96175
168
root 0.581548 16.9419 14.078 -1.05484 -5.88241 -0.203511
lowerback 5.6522 1.99115 0.386279
upperback 0.00353798 2.72108 1.31425
thorax -3.20967 1.3574 0.909902
lowerneck -15.9645 -3.14992 -9.84034
upperneck 21.6647 -3.07616 5.29011
head 9.74641 -1.64612 3.09061
rclavicle -6.4605e-015 2.38542e-015
rhumerus -27.15 -12.1322 -77.4139
rradius 39.8674
rwrist -3.07403
rhand -17.7638 12.1978
rfingers 7.12502
rthumb 8.49829 -17.6112
lclavicle -6.4605e-015 2.38542e-015
lhumerus -45.0789 13.1412 77.9323
lradius 19.7288
lwrist -18.6231
lhand -6.31741 29.7286
lfingers 7.12502
lthumb 19.5272 58.768
rfemur 7.94744 5.27686 23.1823
rtibia 49.8947
rfoot 24.9632 8.16444
rtoes 9.29696
lfemur -29.4352 0.255011 -22.2356
ltibia 35.6556
lfoot -3.31484 -4.20858
ltoes 5.15193
169
root 0.590751 16.9654 14.3329 -1.31278 -6.0296 0.0928748
lowerback 5.85177 2.02558 0.243842
upperback 0.138753 2.75451 1.22562
thorax -3.18476 1.37519 0.890929
lowerneck -16.2074 -3.10396 -9.89356
upperneck 21.7727 -2.96166 5.24086
head 9.82107 -1.60156 3.09809
rclavicle -1.53561e-014 1.70955e-014
rhumerus -27.2282 -12.4363 -77.4449
rradius 39.5447
rwrist -3.02885
rhand -17.5021 11.881
rfingers 7.12502
rthumb 8.75083 -17.9176
lclavicle -1.53561e-014 1.70955e-014
lhumerus -45.0381 13.2653 77.9065
lradius 20.2058
lwrist -17.9477
lhand -6.07513 30.0135
lfingers 7.12502
lthumb 19.7601 59.0291
rfemur 6.06212 5.20647 22.584
rtibia 53.1666
rfoot 25.802 7.57601
rtoes 9.03339
lfemur -28.3024 -0.0334195 -22.6788
ltibia 36.067
lfoot -4.24148 -3.41549
ltoes 4.99224
170
root 0.591851 16.9831 14.5812 -1.44497 -6.30756 0.204187
lowerback 5.90417 2.10469 0.150289
upperback 0.27182 2.8522 1.22798
thorax -3.08298 1.42494 0.93817
lowerneck -16.2688 -3.09193 -9.83604
upperneck 21.6162 -2.90037 5.04031
head 9.76881 -1.58767 3.02261
rclavicle 3.12837e-014 0
rhumerus -27.2278 -12.5055 -77.5073
rradius 39.0695
rwrist -3.16149
rhand -17.2121 12.0025
rfingers 7.12502
rthumb 9.0307 -17.7842
lclavicle 3.12837e-014 0
lhumerus -44.8191 13.408 77.9401
lradius 20.5425
lwrist -17.3854
lhand -6.31057 29.8013
lfingers 7.12502
lthumb 19.5338 58.84
rfemur 4.05197 5.17098 22.2961
rtibia 56.3638
rfoot 24.3687 6.33312
rtoes 8.08969
lfemur -27.3363 -0.361586 -22.8401
ltibia 36.3179
lfoot -5.11656 -2.63996
ltoes 5.5569
171
root 0.600636 17.0078 14.8457 -1.60707 -6.48524 0.77094
lowerback 5.71424 2.08207 -0.338601
upperback 0.423703 2.78495 1.15018
thorax -2.83817 1.3971 1.14772
lowerneck -16.0991 -3.01998 -9.8583
upperneck 21.3641 -2.75231 4.81871
head 9.63411 -1.54347 2.96439
rclavicle 1.45361e-015 -1.19271e-015
rhumerus -27.1049 -12.2574 -77.591
rradius 38.3405
rwrist -3.1219
rhand -16.821 12.1774
rfingers 7.12502
rthumb 9.40804 -17.5927
lclavicle 1.45361e-015 -1.19271e-015
lhumerus -44.6175 13.5472 78.1298
lradius 21.0703
lwrist -16.5956
lhand -6.49853 30.4113
lfingers 7.12502
lthumb 19.3531 59.4683
rfemur 2.10673 4.85109 21.3462
rtibia 59.4155
rfoot 21.9815 5.40098
rtoes 7.90286
lfemur -26.1876 -0.779831 -23.5892
ltibia 36.4199
lfoot -5.92522 -1.8265
ltoes 5.97416
172
root 0.609169 17.0385 15.1075 -1.78117 -6.44833 1.51829
lowerback 5.59688 1.97312 -1.04697
upperback 0.503516 2.59188 1.04334
thorax -2.71202 1.30815 1.45589
lowerneck -16.0933 -2.84384 -9.96189
upperneck 21.4196 -2.46699 4.76566
head 9.63036 -1.42654 3.00161
rclavicle -1.4238e-014 1.19271e-015
rhumerus -26.9569 -11.8402 -77.722
rradius 37.5084
rwrist -2.91103
rhand -16.6627 11.8337
rfingers 7.12502
rthumb 9.5608 -17.9294
lclavicle -1.4238e-014 1.19271e-015
lhumerus -44.1984 13.9693 78.161
lradius 20.8944
lwrist -15.903
lhand -7.15003 30.7768
lfingers 7.12502
lthumb 18.7265 59.8954
rfemur 0.104759 4.21753 20.1471
rtibia 62.2642
rfoot 19.5608 4.86866
rtoes 10.5019
lfemur -24.9997 -1.26415 -24.593
ltibia 36.4187
lfoot -6.83447 -1.21924
ltoes 4.65667
173
root 0.608567 17.0553 15.3508 -1.83747 -6.33976 2.01859
lowerback 5.69017 1.88992 -1.52602
upperback 0.405946 2.44775 0.952027
thorax -2.87601 1.24334 1.63688
lowerneck -16.0946 -2.76146 -10.1575
upperneck 21.5593 -2.31426 4.81746
head 9.67107 -1.36865 3.07496
rclavicle -7.82715e-015 6.75868e-015
rhumerus -27.1917 -11.6834 -77.7928
rradius 36.9813
rwrist -2.24445
rhand -16.1471 11.5487
rfingers 7.12502
rthumb 10.0583 -18.1909
lclavicle -7.82715e-015 6.75868e-015
lhumerus -43.7874 13.9861 78.2125
lradius 20.5152
lwrist -15.115
lhand -8.22846 30.1046
lfingers 7.12502
lthumb 17.689 59.32
rfemur -2.08582 3.53748 19.3452
rtibia 64.879
rfoot 17.1666 4.14548
rtoes 12.6213
lfemur -23.9423 -1.71123 -25.2864
ltibia 36.2636
lfoot -7.61122 -0.595465
ltoes 2.98045
174
root 0.609478 17.069 15.5898 -1.8256 -6.17639 2.46219
lowerback 5.67149 1.766 -1.93303
upperback 0.326531 2.25442 0.866672
thorax -2.95187 1.15318 1.79247
lowerneck -16.0241 -2.70783 -10.2685
upperneck 21.6479 -2.21391 4.796
head 9.68256 -1.33635 3.10068
rclavicle 2.20403e-014 3.97569e-015
rhumerus -27.6157 -11.7423 -77.8391
rradius 36.7325
rwrist -1.11276
rhand -15.5262 11.5196
rfingers 7.12502
rthumb 10.6572 -18.1901
lclavicle 2.20403e-014 3.97569e-015
lhumerus -43.493 13.93 78.3048
lradius 20.6127
lwrist -14.7355
lhand -9.66794 28.2947
lfingers 7.12502
lthumb 16.3034 57.6294
rfemur -4.24153 2.85169 18.6721
rtibia 67.1736
rfoot 14.7069 3.21767
rtoes 12.7867
lfemur -22.9211 -2.1947 -25.9197
ltibia 36.058
lfoot -8.21788 0.07327
ltoes 2.37541
175
root 0.616007 17.0969 15.8424 -1.93186 -5.92508 3.13588
lowerback 5.50993 1.63387 -2.44666
upperback 0.430217 2.04498 0.697342
thorax -2.75642 1.05132 1.92987
lowerneck -16.0568 -2.62539 -10.3137
upperneck 21.7338 -2.07521 4.76016
head 9.70784 -1.28125 3.11522
rclavicle -1.06723e-014 2.38542e-015
rhumerus -27.8924 -11.934 -77.9047
rradius 36.5389
rwrist -0.0135976
rhand -15.0055 10.9759
rfingers 7.12502
rthumb 11.1594 -18.7073
lclavicle -1.06723e-014 2.38542e-015
lhumerus -42.9041 14.0088 78.3889
lradius 20.6495
lwrist -14.7146
lhand -10.7475 26.7138
lfingers 7.12502
lthumb 15.2637 56.1307
rfemur -6.23313 2.06717 17.6538
rtibia 69.0031
rfoot 12.5184 2.24286
rtoes 12.4854
lfemur -21.7207 -2.53491 -26.8623
ltibia 35.7399
lfoot -8.7371 0.48171
ltoes 2.76592
